<svg xmlns="http://www.w3.org/2000/svg" viewBox="0 0 171.2 85.5"><defs><style>.cls-1{fill:#ccc;stroke:#999;stroke-miterlimit:10;stroke-width:0.5px;}.cls-2{fill:#fc00a3;}</style></defs><title>AbLogo_2</title><g id="Layer_2" data-name="Layer 2"><g id="Layer_1-2" data-name="Layer 1"><path class="cls-1" d="M17,41h-.72a1,1,0,0,1-1.06-.86l-1.68-7.78H4.44L2.76,40.13A.94.94,0,0,1,1.71,41H1.13c-.67,0-1-.38-.86-1.1L7.37,8.26a.94.94,0,0,1,1.06-.86H9.58a.94.94,0,0,1,1.06.86l7.2,31.63C18,40.61,17.65,41,17,41ZM13,30,9,11.47,5,30Z"/><path class="cls-2" d="M20.88,18.24V14c0-3.84,2.71-6.62,8.94-6.62h8.59c.76,0,1.23.34,1.23,1V40c0,.62-.47,1-1.23,1H29.94c-6.24,0-9.29-2.78-9.29-6.62V28.85c0-2.21.94-4.85,4.82-5.33C21.83,23.24,20.88,20.4,20.88,18.24Zm15.59-8.5H29.94c-4.35,0-5.88,1.68-5.88,5v3.89c0,2.54,2,3.74,5.88,3.74h6.53ZM23.83,28.56v5c0,3.36,1.53,5,5.88,5h6.76V24.82H29.71C25.83,24.82,23.83,26,23.83,28.56Z"/><path class="cls-1" d="M45.1,41h-.53a.9.9,0,0,1-1-1V8.35a.9.9,0,0,1,1-1h.86a1,1,0,0,1,1.1.77L57.25,34.85V8.35a.86.86,0,0,1,1-1h.53a.9.9,0,0,1,1,1V40a.9.9,0,0,1-1,1H58a1,1,0,0,1-1.1-.77L46.06,13.35V40A.86.86,0,0,1,45.1,41Z"/><path class="cls-1" d="M73.56,7h.38c5.09,0,7.68,2.4,7.68,7.1V34.28c0,4.7-2.59,7.1-7.68,7.1h-.38c-5.09,0-7.68-2.4-7.68-7.1V14.11C65.88,9.36,68.48,7,73.56,7Zm.19,32C77.55,39,79,37.4,79,33.41V15c0-4-1.49-5.57-5.28-5.57S68.48,11,68.48,15V33.41C68.48,37.4,70,39,73.76,39Z"/><path class="cls-1" d="M103.32,41h-.77a1.07,1.07,0,0,1-1.1-.82L96.22,26.5H90.36V40a.86.86,0,0,1-1,1h-.62a.9.9,0,0,1-1-1V8.35a.9.9,0,0,1,1-1h6.91c5.09,0,7.68,2.4,7.68,7.1v4.9c0,3.65-1.54,5.9-4.61,6.72l5.33,13.73C104.33,40.52,104,41,103.32,41Zm-2.54-22.42V15.36c0-4-1.49-5.57-5.28-5.57H90.36V24.15H95.5C99.29,24.15,100.78,22.52,100.78,18.58Z"/><path class="cls-1" d="M121.52,34.52a1.06,1.06,0,0,1-1,.82,1.07,1.07,0,0,1-1.06-.82L111.87,14V40a.86.86,0,0,1-1,1h-.48a.9.9,0,0,1-1-1V8.35a.9.9,0,0,1,1-1h.72a1.09,1.09,0,0,1,1.1.82l8.16,22.47,8.26-22.47a1.18,1.18,0,0,1,1.15-.82h.82a.9.9,0,0,1,1,1V40a.9.9,0,0,1-1,1h-.58a.9.9,0,0,1-1-1V14Z"/><path class="cls-1" d="M152.91,41h-.72c-.58,0-.91-.29-1.06-1l-1.68-9.43h-9.07l-1.68,9.43c-.1.76-.48,1-1.06,1h-.58c-.67,0-1-.47-.86-1.34l7.1-38.36c.1-.76.48-1,1.06-1h1.15c.58,0,1,.29,1.06,1l7.2,38.36C153.92,40.53,153.58,41,152.91,41Zm-4-13.33-4-22.47-4,22.47Z"/><path class="cls-1" d="M171,39.56V40a.9.9,0,0,1-1,1H159.34a.9.9,0,0,1-1-1V8.35a.9.9,0,0,1,1-1H160a.86.86,0,0,1,1,1V38.6h9A.9.9,0,0,1,171,39.56Z"/><path class="cls-1" d="M15.44,55.61h-.62a.92.92,0,0,1-1-1V51.29c0-3.7-1.34-5.33-4.94-5.33S4,47.59,4,51.29v2.35c0,2.5.86,3.17,3.41,4.51L12.51,61c2.35,1.25,4,3.12,4,5.66V71c0,4.8-2.45,7-7.54,7h-.1c-5.09,0-7.54-2.16-7.54-7V66.51a.93.93,0,0,1,1-1H3a.92.92,0,0,1,1,1v3.7c0,3.65,1.34,5.42,5,5.42s5-1.78,5-5.42V67.52c0-2.5-1-3.36-3.55-4.8L5.36,60c-2.78-1.58-4-2.88-4-5.57V50.52c0-4.61,2.88-6.91,7.49-6.91H9c4.61,0,7.49,2.3,7.49,6.91V54.6A.93.93,0,0,1,15.44,55.61Z"/><path class="cls-1" d="M34.69,45v.43a.93.93,0,0,1-1,1H28.35V76.64a.9.9,0,0,1-1,1h-.62a.86.86,0,0,1-1-1V46.39H20.43a.93.93,0,0,1-1-1V45a.9.9,0,0,1,1-1H33.68A.9.9,0,0,1,34.69,45Z"/><path class="cls-1" d="M53.79,45V70.88c0,4.8-2.5,7.1-7.58,7.1H46c-5.09,0-7.58-2.26-7.58-7.1V45a.9.9,0,0,1,1-1h.62a.86.86,0,0,1,1,1V70c0,4,1.3,5.57,5.09,5.57S51.2,74,51.2,70V45a.86.86,0,0,1,1-1h.62A.9.9,0,0,1,53.79,45Z"/><path class="cls-1" d="M75.53,51.1V70.49c0,4.7-2.59,7.1-7.68,7.1H61a.9.9,0,0,1-1-1V45a.9.9,0,0,1,1-1h6.82C72.94,44,75.53,46.39,75.53,51.1Zm-7.87-4.7h-5V75.2h5c3.79,0,5.28-1.58,5.28-5.57V52C72.94,48,71.45,46.39,67.66,46.39Z"/><path class="cls-1" d="M83.61,77.6H83a.9.9,0,0,1-1-1V45a.9.9,0,0,1,1-1h.62a.86.86,0,0,1,1,1V76.64A.86.86,0,0,1,83.61,77.6Z"/><path class="cls-1" d="M98.52,43.61h.38c5.09,0,7.68,2.91,7.68,8.61V76.64c0,5.7-2.59,8.61-7.68,8.61h-.38c-5.09,0-7.68-2.91-7.68-8.61V52.22C90.84,46.46,93.44,43.61,98.52,43.61Zm.19,38.73c3.79,0,5.28-1.92,5.28-6.75V53.26c0-4.83-1.49-6.75-5.28-6.75s-5.28,1.92-5.28,6.75V75.6C93.44,80.42,94.92,82.34,98.72,82.34Z"/><circle class="cls-2" cx="83.28" cy="80.75" r="1.5"/></g></g></svg>